<?xml version="1.0" standalone="no"?>
<!DOCTYPE svg PUBLIC "-//W3C//DTD SVG 20010904//EN"
 "http://www.w3.org/TR/2001/REC-SVG-20010904/DTD/svg10.dtd">
<svg version="1.0" xmlns="http://www.w3.org/2000/svg"
 width="518.000000pt" height="518.000000pt" viewBox="0 0 518.000000 518.000000"
 preserveAspectRatio="xMidYMid meet">
<metadata>
Created by potrace 1.14, written by Peter Selinger 2001-2017
</metadata>
<g transform="translate(0.000000,518.000000) scale(0.100000,-0.100000)"
fill="#000000" stroke="none">
<path d="M0 2585 l0 -2585 2590 0 2590 0 0 2585 0 2585 -2590 0 -2590 0 0
-2585z m1050 2030 l0 -106 133 3 132 3 3 103 3 102 149 0 150 0 0 -105 0 -105
135 0 135 0 0 105 0 105 130 0 130 0 -2 -307 -3 -308 -682 -3 -683 -2 0 310 0
310 135 0 135 0 0 -105z m740 -1240 l0 -455 -90 0 -90 0 0 -135 0 -135 90 0
90 0 0 -150 0 -150 878 2 877 3 3 103 3 102 159 0 160 0 0 -560 0 -560 -755 0
-755 0 0 225 0 225 -135 0 -135 0 0 -225 0 -225 -460 0 -460 0 0 750 0 750 80
0 80 0 0 135 0 135 -80 0 -80 0 0 310 0 310 310 0 310 0 0 -455z m1994 -333
c38 -103 71 -193 74 -199 3 -10 -30 -13 -147 -13 -83 0 -151 3 -151 7 0 13
145 393 150 393 3 0 36 -85 74 -188z m-1845 -1876 c-2 -3 -61 -25 -129 -49
-206 -73 -435 -186 -642 -318 -65 -41 -108 -63 -108 -55 0 16 78 394 85 414 3
9 93 12 401 12 219 0 395 -2 393 -4z m2073 -246 c54 -135 101 -253 104 -263 4
-13 -13 -6 -63 26 -289 184 -611 339 -913 438 l-145 48 459 -2 460 -2 98 -245z
m-1230 9 c432 -79 1011 -373 1598 -813 l135 -101 -1174 -3 c-646 -1 -1176 0
-1179 2 -7 7 26 151 53 234 56 168 247 509 376 673 32 41 16 40 191 8z m-881
-151 c-203 -228 -383 -479 -480 -668 l-52 -100 -382 0 -382 1 48 44 c283 260
731 569 1037 714 80 38 285 120 303 121 4 0 -37 -51 -92 -112z m72 -380 c-40
-94 -77 -233 -88 -325 l-7 -63 -99 0 c-54 0 -99 4 -99 8 0 26 307 462 325 462
2 0 -13 -37 -32 -82z"/>
<path d="M2820 1895 l0 -135 145 0 145 0 0 135 0 135 -145 0 -145 0 0 -135z"/>
</g>
</svg>
